<svg width="26" height="26" viewBox="0 0 26 26" fill="none" xmlns="http://www.w3.org/2000/svg">
<path d="M12.75 25.3521C19.7916 25.3521 25.5 19.6768 25.5 12.6761C25.5 5.67526 19.7916 0 12.75 0C5.70837 0 0 5.67526 0 12.6761C0 19.6768 5.70837 25.3521 12.75 25.3521Z" fill="#181818"/>
<path d="M12.6195 22.8096C12.1611 21.489 11.8663 20.5262 11.7158 19.8807C11.1221 17.3387 11.0835 14.8114 11.5894 12.2652C11.6836 11.8134 12.1838 10.4128 12.434 9.91623C12.7733 9.23268 13.5391 7.82592 13.5543 7.84608C13.5607 7.85946 13.4586 8.08259 13.319 8.34797C12.9448 9.08217 12.1377 11.3888 11.9842 12.1639C11.7082 13.5954 11.6144 14.7211 11.6538 16.1011C11.6785 16.8318 11.7675 17.822 11.8207 17.8926C11.8549 17.938 12.2304 17.7966 12.4709 17.6409C12.6552 17.5171 12.9043 17.2275 12.9666 17.0532C13.0065 16.9414 13.0012 16.9248 12.9046 16.9129C12.8464 16.9034 12.8028 16.8843 12.8086 16.8679C12.8157 16.8482 12.9982 16.6979 13.2138 16.5334C13.7901 16.0963 13.9385 15.9006 14.1964 15.2883C14.3419 14.9435 14.3977 14.7559 14.3679 14.7454C14.338 14.7348 14.2317 14.7343 14.122 14.7437C13.5753 14.7839 13.5803 14.7857 13.8588 14.6804C14.3043 14.5156 14.6105 14.1757 14.7969 13.6381C14.8838 13.3948 14.885 13.3915 14.7722 13.4406C14.4794 13.5704 14.453 13.55 14.7032 13.3829C14.9095 13.2446 14.9979 13.1537 15.0631 13.0027C15.1141 12.8912 15.1371 12.7956 15.1172 12.7886C15.0972 12.7815 15.0091 12.8245 14.9162 12.8805C14.8234 12.9366 14.6629 13.0095 14.5621 13.0406L14.3729 13.0997L14.6085 12.9422C15.1821 12.5597 15.4011 12.2446 15.5724 11.561L15.6749 11.164L15.5224 11.199C15.4374 11.2172 15.2802 11.2653 15.1809 11.308C14.9185 11.4153 14.9548 11.3763 15.3283 11.1305C15.7897 10.8269 16.0441 10.6168 16.2153 10.3885C16.3914 10.1619 16.4824 9.93856 16.4127 9.91397C16.3282 9.88411 15.4216 9.97504 15.0067 10.0544C14.7789 10.0962 14.6014 10.1224 14.6061 10.1092C14.6191 10.073 15.2007 9.85634 15.7252 9.6898C16.2732 9.52039 16.4102 9.45034 16.5354 9.2724C16.6125 9.16634 16.8191 8.32113 16.8555 7.95265L16.8691 7.82045L16.1879 8.00206L16.4018 7.87392C16.7208 7.68665 17.0276 7.37662 17.1707 7.10135C17.2411 6.96701 17.2822 6.85194 17.2673 6.84668C17.2524 6.84141 17.11 6.89482 16.9445 6.966C16.6528 7.09254 16.1547 7.21656 16.1255 7.17293C16.1129 7.1611 16.2509 7.07282 16.4245 6.97865C17.3358 6.48217 17.3948 6.39561 17.3046 5.73811L17.2462 5.32135L17.1009 5.35152L16.9545 5.38499L17.0354 5.28397C17.2203 5.0642 17.2798 4.74087 17.2126 4.25439C17.1807 3.99876 17.1499 3.73986 17.1549 3.67868L17.1553 3.56777L16.5345 3.73732C15.8202 3.93316 15.4599 4.09473 15.0457 4.40755C14.8848 4.52848 14.736 4.63144 14.7138 4.63099C14.6915 4.63054 14.744 4.53059 14.8281 4.40482C14.9173 4.28079 14.9806 4.16617 14.968 4.15431C14.9338 4.10893 14.1425 4.34789 13.9937 4.45084C13.7936 4.58752 13.7011 4.86217 13.6722 5.42949C13.657 5.67589 13.6387 5.88411 13.6276 5.88389C13.6153 5.88696 13.5666 5.66245 13.5194 5.38665C13.4734 5.10755 13.4206 4.8631 13.4066 4.83963C13.3762 4.7993 12.4878 5.26313 12.2209 5.46138C12.0466 5.58865 12.0298 5.68268 12.1032 6.0418C12.1341 6.17487 12.146 6.28273 12.1337 6.2858C12.1203 6.29217 12.0246 6.19915 11.9237 6.08949C11.824 5.97653 11.7322 5.88859 11.7248 5.89341C11.6452 5.92823 11.5153 6.05639 11.4907 6.12544C11.4743 6.17146 11.53 6.37625 11.6091 6.5782C11.6933 6.78189 11.7455 6.93361 11.728 6.92C11.7104 6.90642 11.6402 6.852 11.5688 6.8009C11.4196 6.68527 11.3789 6.68944 11.4075 6.82907C11.4229 6.92707 11.4217 6.93037 11.3363 6.8558C11.1151 6.65924 11.0613 6.62175 11.0233 6.6342C10.9286 6.66375 10.3571 7.41713 10.2936 7.59465C10.2478 7.72287 10.2796 7.90068 10.4914 8.65668C10.5801 8.97304 10.6525 9.27254 10.6559 9.32558C10.6588 9.41175 10.645 9.40318 10.5433 9.24879C10.486 9.15823 10.315 8.86834 10.1718 8.61045C10.0297 8.3493 9.89964 8.13307 9.87975 8.12606C9.83 8.10848 9.6713 8.41158 9.41222 9.02721C9.1543 9.63958 9.11772 9.93025 9.24437 10.36C9.32493 10.6365 9.39743 10.7472 9.95248 11.4207C10.1586 11.6749 10.3461 11.9188 10.363 11.9655C10.3799 12.0122 10.1251 11.8001 9.78174 11.4752C9.44214 11.1554 9.15076 10.9045 9.12617 10.9106C9.07199 10.9211 8.94914 11.7514 8.93613 12.18C8.90998 12.8964 9.04397 13.3213 9.47614 13.8996C9.64722 14.1266 9.78288 14.3115 9.77293 14.308C9.76794 14.3062 9.60763 14.1904 9.41103 14.0506C9.08041 13.8155 9.05669 13.8034 9.01946 13.8606C8.90044 14.037 8.99858 14.5936 9.21139 14.939C9.27775 15.0513 9.33153 15.1517 9.32798 15.1616C9.32447 15.1715 9.22434 15.1694 9.10783 15.1505C8.85757 15.114 8.83235 15.1532 8.92987 15.4135C9.0181 15.6371 9.02162 15.6273 8.88754 15.5948C8.78951 15.5712 8.7962 15.5995 8.95517 15.9074C9.05134 16.0931 9.27789 16.4471 9.46036 16.6892C9.76211 17.0993 9.77381 17.1293 9.63656 17.0586L9.48937 16.9845L9.58908 17.0974C9.72918 17.2543 10.0326 17.4872 10.3764 17.7012C10.9464 18.0505 11.0241 18.1779 11.1505 18.9222C11.4679 20.7631 12.4186 23.4977 12.7868 23.6276C12.8216 23.64 12.8585 23.6307 12.8655 23.611C12.8738 23.5882 12.762 23.2265 12.6195 22.8096ZM13.6158 7.76786C13.6044 7.75273 13.61 7.72138 13.6332 7.70363C13.6575 7.68262 13.6689 7.69775 13.656 7.73392C13.6481 7.77183 13.6261 7.78628 13.6158 7.76786Z" fill="white"/>
</svg>
