<svg width="17" height="12" viewBox="0 0 17 12" fill="none" xmlns="http://www.w3.org/2000/svg">
<path fill-rule="evenodd" clip-rule="evenodd" d="M16.2916 0.3664C16.5259 0.600809 16.6576 0.918695 16.6576 1.25015C16.6576 1.5816 16.5259 1.89949 16.2916 2.1339L6.92244 11.5031C6.79863 11.6269 6.65163 11.7251 6.48984 11.7922C6.32805 11.8592 6.15465 11.8937 5.97953 11.8937C5.80441 11.8937 5.631 11.8592 5.46921 11.7922C5.30742 11.7251 5.16043 11.6269 5.03661 11.5031L0.38161 6.8489C0.262223 6.73359 0.166995 6.59566 0.101484 6.44316C0.0359723 6.29065 0.00148947 6.12662 4.71958e-05 5.96065C-0.00139507 5.79468 0.0302322 5.63008 0.0930833 5.47646C0.155934 5.32284 0.248751 5.18327 0.366117 5.06591C0.483482 4.94854 0.623047 4.85572 0.776668 4.79287C0.930288 4.73002 1.09489 4.69839 1.26086 4.69984C1.42684 4.70128 1.59086 4.73576 1.74337 4.80127C1.89587 4.86678 2.0338 4.96201 2.14911 5.0814L5.97911 8.9114L14.5233 0.3664C14.6394 0.250242 14.7772 0.158096 14.9289 0.0952272C15.0806 0.0323587 15.2432 0 15.4074 0C15.5717 0 15.7343 0.0323587 15.886 0.0952272C16.0377 0.158096 16.1755 0.250242 16.2916 0.3664Z" fill="white"/>
</svg>
