<svg width="44" height="44" viewBox="0 0 44 44" fill="none" xmlns="http://www.w3.org/2000/svg">
<path d="M44 22C44 34.1503 34.1503 44 22 44C9.84974 44 0 34.1503 0 22C0 9.84974 9.84974 0 22 0C34.1503 0 44 9.84974 44 22Z" fill="#E1E0E0"/>
<path d="M21.7748 39.5875C20.9838 37.2956 20.4751 35.6243 20.2155 34.504C19.1911 30.0924 19.1245 25.7059 19.9975 21.2869C20.1599 20.5028 21.023 18.0721 21.4547 17.2102C21.8874 16.3334 22.722 14.7712 23.1387 14.0296C23.2964 13.7491 23.3381 13.7713 23.1977 14.0608C23.1361 14.1878 23.0626 14.334 22.9818 14.4884C22.336 15.7626 20.9436 19.7659 20.6786 21.1111C20.2025 23.5957 20.0405 25.5493 20.1085 27.9443C20.1512 29.2125 20.3047 30.9311 20.3966 31.0537C20.4556 31.1325 21.1034 30.887 21.5184 30.6167C21.8364 30.402 22.2663 29.8992 22.3737 29.5968C22.4425 29.4028 22.4335 29.3739 22.2668 29.3532C22.1663 29.3368 22.091 29.3037 22.1012 29.2752C22.1133 29.2409 22.4283 28.9801 22.8004 28.6946C23.7947 27.9361 24.0507 27.5964 24.4957 26.5337C24.7468 25.9353 24.8431 25.6097 24.7916 25.5914C24.7401 25.5731 24.5567 25.5722 24.3673 25.5885C23.424 25.6584 23.4326 25.6614 23.9132 25.4787C24.6819 25.1926 25.2103 24.6028 25.532 23.6697C25.6819 23.2474 25.6839 23.2417 25.4894 23.3268C24.984 23.5522 24.9385 23.5168 25.3702 23.2267C25.7261 22.9868 25.8788 22.829 25.9912 22.5669C26.0793 22.3733 26.1188 22.2075 26.0845 22.1953C26.0502 22.1831 25.898 22.2576 25.7378 22.3549C25.5776 22.4522 25.3006 22.5787 25.1268 22.6327C25.0722 22.6498 25.0368 22.5762 25.0843 22.5443L25.2068 22.4619C26.1965 21.7981 26.5744 21.2512 26.87 20.0647L26.9797 19.6374C27.0104 19.5182 26.9037 19.4088 26.7837 19.4365C26.6372 19.468 26.3658 19.5516 26.1945 19.6257C25.7417 19.8118 25.8044 19.7442 26.4489 19.3176C27.245 18.7907 27.6839 18.4261 27.9793 18.0298C28.2832 17.6366 28.4402 17.2489 28.32 17.2063C28.1741 17.1544 26.6099 17.3123 25.8939 17.45C25.5008 17.5224 25.1947 17.5679 25.2028 17.5451C25.225 17.4823 26.2287 17.1062 27.1337 16.8172C28.0792 16.5232 28.3157 16.4016 28.5317 16.0928C28.6647 15.9087 29.0212 14.4418 29.084 13.8023C29.0953 13.6915 28.9922 13.6037 28.8847 13.6326L28.3482 13.7764C28.2802 13.7947 28.2408 13.702 28.3011 13.6656C28.8515 13.3406 29.3809 12.8026 29.6279 12.3248C29.7494 12.0917 29.8203 11.892 29.7945 11.8828C29.7688 11.8737 29.5232 11.9664 29.2376 12.0899C28.9869 12.1993 28.6479 12.3076 28.3644 12.3794C28.0087 12.4695 27.9579 12.3243 28.2786 12.1459C28.2989 12.1346 28.3195 12.1232 28.3404 12.1118C29.9128 11.2502 30.0145 11.0999 29.859 9.95882L29.7935 9.48907C29.7743 9.35188 29.6431 9.25953 29.5075 9.28787L29.4732 9.29574C29.401 9.31234 29.3483 9.22861 29.3944 9.17062C29.7136 8.78918 29.8161 8.22805 29.7002 7.38373C29.6451 6.94008 29.5919 6.49072 29.6006 6.38457C29.601 6.28783 29.5089 6.21743 29.4157 6.24305L28.5301 6.48634C27.2976 6.8262 26.676 7.10665 25.9612 7.64957C25.6836 7.85944 25.4268 8.03812 25.3884 8.03734C25.35 8.03656 25.4406 7.86311 25.5858 7.6448C25.6031 7.62058 25.6199 7.59657 25.6359 7.57299C25.7915 7.34453 25.6891 7.20046 25.4213 7.26897C24.9803 7.38181 24.3171 7.60564 24.146 7.72469C23.8007 7.96191 23.6412 8.43855 23.5912 9.42317C23.5883 9.47106 23.5853 9.51811 23.5823 9.56392C23.5535 9.99669 23.4458 10.0042 23.3679 9.57754C23.3546 9.50466 23.3411 9.42797 23.3276 9.34884C23.2483 8.86446 23.1572 8.44019 23.133 8.39947C23.0805 8.32944 21.5476 9.13444 21.087 9.47852C20.7863 9.69941 20.7573 9.86261 20.884 10.4859C20.9485 10.7652 20.8171 10.8296 20.6216 10.6199C20.606 10.6031 20.5902 10.586 20.5743 10.5687C20.5592 10.5515 20.5442 10.5346 20.5294 10.5181C20.3434 10.3114 20.0901 10.2806 19.9132 10.4951C19.872 10.5451 19.8405 10.5932 19.8271 10.631C19.7987 10.7109 19.8949 11.0663 20.0314 11.4168C20.1766 11.7703 20.2668 12.0337 20.2365 12.0101C20.2062 11.9865 20.0851 11.892 19.9619 11.8033C19.7044 11.6027 19.6342 11.6099 19.6835 11.8523C19.7101 12.0223 19.7081 12.028 19.5607 11.8986C19.1791 11.5575 19.0862 11.4924 19.0205 11.514C18.8573 11.5653 17.871 12.8728 17.7616 13.181C17.6825 13.4035 17.7373 13.7121 18.1029 15.0241C18.2559 15.5732 18.3807 16.093 18.3867 16.1851C18.3916 16.3346 18.3679 16.3198 18.1923 16.0518C18.0935 15.8946 17.7984 15.3915 17.5513 14.9439C17.3062 14.4907 17.0817 14.1154 17.0474 14.1032C16.9615 14.0727 16.6878 14.5988 16.2407 15.6673C15.7956 16.73 15.7325 17.2345 15.9511 17.9803C16.0901 18.4602 16.2152 18.6524 17.1729 19.8213C17.5286 20.2625 17.8521 20.6857 17.8813 20.7668C17.9105 20.8478 17.4708 20.4797 16.8783 19.9159C16.2923 19.3609 15.7896 18.9253 15.7471 18.936C15.6536 18.9542 15.4416 20.3953 15.4192 21.1391C15.3741 22.3824 15.6053 23.1199 16.351 24.1236C16.6462 24.5175 16.8803 24.8384 16.8631 24.8323C16.8545 24.8292 16.5779 24.6282 16.2386 24.3857C15.6681 23.9775 15.6273 23.9565 15.563 24.0558C15.3576 24.362 15.527 25.3281 15.8942 25.9275C16.0087 26.1224 16.1014 26.2967 16.0954 26.3138C16.0893 26.3309 15.9165 26.3274 15.7155 26.2946C15.2836 26.2312 15.2401 26.2992 15.4084 26.751C15.5606 27.1391 15.5667 27.122 15.3354 27.0656C15.1662 27.0248 15.1778 27.0739 15.4521 27.6082C15.618 27.9305 16.0089 28.5448 16.3238 28.965C16.8444 29.6768 16.8646 29.7289 16.6278 29.6063L16.6065 29.5955C16.5571 29.5704 16.5093 29.6319 16.5459 29.6736C16.7876 29.9457 17.3111 30.3501 17.9043 30.7213C18.8878 31.3276 19.022 31.5487 19.2401 32.8405C19.7877 36.0356 21.4281 40.7816 22.0634 41.0072C22.1235 41.0286 22.1872 41.0126 22.1994 40.9784C22.2135 40.9384 22.0206 40.3109 21.7748 39.5875ZM23.494 13.4816C23.4743 13.4553 23.484 13.4009 23.5239 13.3701C23.5659 13.3336 23.5856 13.3599 23.5633 13.4226C23.5496 13.4884 23.5117 13.5135 23.494 13.4816Z" fill="#181818"/>
</svg>
